# xmcd
#
# Track frame offsets:
#	150
#	12400
#	29100
#	40576
#	53377
#	67909
#	83810
#	100014
#	115160
#	130545
#	141110
#	155091
#	167172
#	176944
#	191876
#	204419
#	216015
#	231325
#
# Disc length: 3212 seconds
#
# Revision: 1
# Processed by: cddbd v1.5.2PL0 Copyright (c) Steve Scherf et al.
# Submitted via: audiograbber 1.83.01
#
DISCID=f70c8a12
DTITLE=Various Artist - Country Top 50 [CD3)
DYEAR=1900
DGENRE=Country
TTITLE0=Waylon Jennings - Working Without A Net
TTITLE1=Lee Greenwood - Ring On Her Finger, Time On Her Hands
TTITLE2=Loretta Lynn - Love Is The Foundation
TTITLE3=Patty Loveless - I Did
TTITLE4=Don Williams - Tulse Time
TTITLE5=Ray Stevens - It's Me Again, Margaret
TTITLE6=Cal Smith - Country Bumpkin
TTITLE7=Kathy Mattea - Eighteen Wheels And A Dozen Roses
TTITLE8=Oak Ridge Boys - Sail Away
TTITLE9=Leroy Van Dyke - If A Woman Answers
TTITLE10=John Conlee - Lady Lay Down
TTITLE11=Loretta Lynn and Conway Twitty - As Soon As I Hang Up The Phone (The Tel
TTITLE11=ephone Song)
TTITLE12=Johnny Rodriguez - Ridin' My Thumb To Mexico
TTITLE13=Jeanne Pruett - Satin Sheets
TTITLE14=Bill Anderson - Still
TTITLE15=Ernest Tubb - Thanks A Lot
TTITLE16=Sammy Kershaw - Third Rate Romance
TTITLE17=Tom T. Hall - I Love
EXTD=
EXTT0=
EXTT1=
EXTT2=
EXTT3=
EXTT4=
EXTT5=
EXTT6=
EXTT7=
EXTT8=
EXTT9=
EXTT10=
EXTT11=
EXTT12=
EXTT13=
EXTT14=
EXTT15=
EXTT16=
EXTT17=
PLAYORDER=
